<svg class="svg-icon" style="width: 1em; height: 1em;vertical-align: middle;fill: currentColor;overflow: hidden;" viewBox="0 0 1024 1024" version="1.1" xmlns="http://www.w3.org/2000/svg"><path d="M796.547971 179.187099h-28.326812c-0.589758-31.974915-26.774601-57.80447-58.873406-57.80447h-50.702801v-1.385317c0-32.480714-26.434671-58.901051-58.902075-58.901051h-172.125362c-32.467404 0-58.901051 26.420337-58.901051 58.901051l-53.500056 1.385317c-32.12645 0-58.312317 25.829555-58.901051 57.80447h-28.326812c-35.072168 0-63.618091 28.532612-63.61809 63.618091V893.670661c0 35.072168 28.545923 63.618091 63.61809 63.618091h568.559426c35.072168 0 63.618091-28.545923 63.61809-63.618091V242.80519c0-35.085478-28.545923-63.618091-63.61809-63.618091z m-484.101173 1.096581c0-1.508183 1.233782-2.741965 2.76961-2.741965h81.579087c15.521078 0 28.080055-12.573312 28.080055-28.080055v-29.464348a2.750156 2.750156 0 0 1 2.741965-2.741965h172.125362a2.750156 2.750156 0 0 1 2.741965 2.741965v29.464348c0 15.506743 12.558977 28.080055 28.080055 28.080055h78.781832a2.750156 2.750156 0 0 1 2.741965 2.741965v69.363112a2.750156 2.750156 0 0 1-2.741965 2.741964H315.216408c-1.535828 0-2.76961-1.233782-2.76961-2.741964v-69.363112zM804.006975 893.670661c0 4.112947-3.345033 7.459005-7.459004 7.459004H227.988545c-4.112947 0-7.459005-3.345033-7.459004-7.459004V242.80519c0-4.112947 3.345033-7.459005 7.459004-7.459005h28.299167v14.300607c0 32.480714 26.434671 58.902075 58.928696 58.902075h394.131345c32.467404 0 58.902075-26.420337 58.902075-58.902075v-14.300607h28.299167c4.112947 0 7.459005 3.345033 7.459004 7.459005V893.670661z" fill="#3E3A39" /><path d="M520.494153 697.716416H360.242789c-15.521078 0-28.080055 12.572288-28.080055 28.080055 0 15.506743 12.558977 28.080055 28.080055 28.080055H520.495177c15.521078 0 28.080055-12.573312 28.080055-28.080055-0.001024-15.507767-12.560001-28.080055-28.081079-28.080055zM667.117603 545.800502H360.242789c-15.521078 0-28.080055 12.572288-28.080055 28.080055 0 15.506743 12.558977 28.080055 28.080055 28.080055h306.874814c15.521078 0 28.080055-12.572288 28.080055-28.080055s-12.558977-28.080055-28.080055-28.080055zM667.117603 399.437119H360.242789c-15.521078 0-28.080055 12.572288-28.080055 28.080055 0 15.506743 12.558977 28.080055 28.080055 28.080055h306.874814c15.521078 0 28.080055-12.573312 28.080055-28.080055 0-15.506743-12.558977-28.080055-28.080055-28.080055z" fill="#3E3A39" /></svg>