<?xml version="1.0" encoding="iso-8859-1"?>
<!-- Generator: Adobe Illustrator 16.0.0, SVG Export Plug-In . SVG Version: 6.00 Build 0)  -->
<!DOCTYPE svg PUBLIC "-//W3C//DTD SVG 1.1//EN" "http://www.w3.org/Graphics/SVG/1.1/DTD/svg11.dtd">
<svg version="1.1" id="Capa_1" xmlns="http://www.w3.org/2000/svg" xmlns:xlink="http://www.w3.org/1999/xlink" x="0px" y="0px"
	 width="380.722px" height="380.721px" viewBox="0 0 380.722 380.721" style="enable-background:new 0 0 380.722 380.721;"
	 xml:space="preserve">
<g>
	<g>
		<path d="M115.455,113.184c7.674,0,13.896,6.222,13.896,13.896c0,7.674-6.222,13.896-13.896,13.896
			c-7.68,0-13.901-6.222-13.901-13.896C101.554,119.405,107.775,113.184,115.455,113.184z"/>
		<rect x="146.529" y="115.298" width="135.259" height="23.545"/>
		<path d="M115.455,168.123c7.674,0,13.896,6.222,13.896,13.896c0,7.68-6.222,13.896-13.896,13.896
			c-7.68,0-13.901-6.216-13.901-13.896C101.554,174.344,107.775,168.123,115.455,168.123z"/>
		<rect x="146.529" y="170.254" width="135.259" height="23.545"/>
		<path d="M115.455,228.969c7.674,0,13.896,6.217,13.896,13.896s-6.222,13.896-13.896,13.896c-7.68,0-13.901-6.216-13.901-13.896
			S107.775,228.969,115.455,228.969z"/>
		<rect x="146.529" y="231.084" width="135.259" height="23.551"/>
		<path d="M115.455,283.915c7.674,0,13.896,6.215,13.896,13.896c0,7.669-6.222,13.896-13.896,13.896
			c-7.68,0-13.901-6.227-13.901-13.896C101.554,290.129,107.775,283.915,115.455,283.915z"/>
		<rect x="146.529" y="286.041" width="135.259" height="23.551"/>
		<path d="M323.325,30.424h-59.546V11.781c0,0-44.488-11.781-74.156-11.781c-29.674,0-74.168,11.781-74.168,11.781v18.643H57.391
			c-8.661,0-15.69,7.018-15.69,15.691v318.921c0,8.656,7.029,15.686,15.69,15.686h265.935c8.679,0,15.696-7.029,15.696-15.686
			V46.115C339.021,37.441,331.98,30.424,323.325,30.424z M190.361,13.588c7.993,0,14.465,6.471,14.465,14.465
			c0,7.982-6.472,14.459-14.465,14.459c-7.994,0-14.472-6.477-14.472-14.459C175.89,20.06,182.367,13.588,190.361,13.588z
			 M307.628,349.327H73.111V61.817h42.355v10.793h148.324V61.817h43.837V349.327L307.628,349.327z"/>
	</g>
</g>
<g>
</g>
<g>
</g>
<g>
</g>
<g>
</g>
<g>
</g>
<g>
</g>
<g>
</g>
<g>
</g>
<g>
</g>
<g>
</g>
<g>
</g>
<g>
</g>
<g>
</g>
<g>
</g>
<g>
</g>
</svg>
