<?xml version="1.0" encoding="iso-8859-1"?>
<!-- Generator: Adobe Illustrator 19.0.0, SVG Export Plug-In . SVG Version: 6.00 Build 0)  -->
<svg version="1.1" id="Layer_1" xmlns="http://www.w3.org/2000/svg" xmlns:xlink="http://www.w3.org/1999/xlink" x="0px" y="0px"
	 viewBox="0 0 512.001 512.001" style="enable-background:new 0 0 512.001 512.001;" xml:space="preserve">
<path style="fill:#BD6428;" d="M112,64.001h288c17.672,0,32,14.328,32,32v384c0,17.672-14.328,32-32,32H112
	c-17.672,0-32-14.328-32-32v-384C80,78.329,94.328,64.001,112,64.001z"/>
<path style="fill:#F5F6F6;" d="M120,480.001c-4.416,0-8-3.584-8-8v-368c0-4.416,3.584-8,8-8h272c4.416,0,8,3.584,8,8v288l-88,88H120
	z"/>
<path style="fill:#A35623;" d="M176,96.001h-16v-16c0-8.84,7.16-16,16-16l0,0V96.001z"/>
<path style="fill:#CECECE;" d="M400,392.001h-80c-4.416,0-8,3.584-8,8v80L400,392.001z"/>
<path style="fill:#D17F4D;" d="M88,88.001L88,88.001c4.416,0,8,3.584,8,8v264c0,4.416-3.584,8-8,8l0,0c-4.416,0-8-3.584-8-8v-264
	C80,91.585,83.584,88.001,88,88.001z"/>
<g>
	<path style="fill:#E9E9E9;" d="M304,408.001v16c0,4.416-3.584,8-8,8l0,0c-4.416,0-8,3.584-8,8s-3.584,8-8,8h-8
		c-4.416,0-8,3.584-8,8s-3.584,8-8,8H112v8c0,4.416,3.584,8,8,8h192v-80C307.584,400.001,304,403.585,304,408.001z"/>
	<path style="fill:#E9E9E9;" d="M392,96.001H160c0.128,2.4,0.128,4.8,0,7.2c-0.44,8.824,6.352,16.336,15.176,16.776
		c0.28,0.016,0.552,0.024,0.824,0.024h192c8.84,0,16,7.16,16,16v24l0,0c0,8.84,7.16,16,16,16l0,0v-72
		C400,99.585,396.416,96.001,392,96.001z"/>
</g>
<path style="fill:#9BA7AF;" d="M308.72,45.121c-6.96-2.872-12.232-8.76-14.32-16c-6.184-21.208-28.392-33.384-49.6-27.2
	c-13.12,3.824-23.376,14.08-27.2,27.2c-2.088,7.24-7.36,13.128-14.32,16l-17.2,6.88c-6.064,2.416-10.056,8.272-10.08,14.8v29.2
	c0,8.84,7.16,16,16,16h128c8.84,0,16-7.16,16-16v-29.2c-0.024-6.528-4.016-12.384-10.08-14.8L308.72,45.121z M256,56.001
	c-8.84,0-16-7.16-16-16s7.16-16,16-16c8.84,0,16,7.16,16,16S264.84,56.001,256,56.001z"/>
<path style="fill:#72818B;" d="M312,64.001c-4.416,0-8,3.584-8,8l0,0c0,4.416-3.584,8-8,8h-16c-4.416,0-8,3.584-8,8l0,0
	c0,4.416-3.584,8-8,8h-88c0,8.84,7.16,16,16,16h128c8.84,0,16-7.16,16-16v-32H312z"/>
<path style="fill:#AFBABF;" d="M225.04,40.001c-4.416,0.144-8.112-3.328-8.248-7.744c-0.024-0.76,0.064-1.52,0.248-2.256
	c4.584-17.744,20.632-30.104,38.96-30c4.416,0,8,3.584,8,8s-3.584,8-8,8c-10.96-0.016-20.544,7.392-23.28,18
	C231.816,37.513,228.664,39.969,225.04,40.001z"/>
<path style="fill:#A35623;" d="M400,80.001h-32c-8.84,0-16-7.16-16-16h-16v32h56c4.416,0,8,3.584,8,8v288l-88,88H120
	c0,8.84,7.16,16,16,16h194.72c8.488,0.008,16.632-3.36,22.64-9.36l53.28-53.28c6-6.008,9.368-14.152,9.36-22.64V96.001
	C416,87.169,408.84,80.001,400,80.001z"/>
<g>
	<circle style="fill:#3CB54A;" cx="320" cy="184.001" r="24"/>
	<circle style="fill:#3CB54A;" cx="192" cy="384.001" r="24"/>
</g>
<g>
	<path style="fill:#3689C9;" d="M331.28,352.001l10.32-10.32c2.872-3.352,2.48-8.408-0.872-11.28c-2.992-2.568-7.416-2.568-10.408,0
		L320,340.721l-10.32-10.32c-3.352-2.872-8.408-2.48-11.28,0.872c-2.568,2.992-2.568,7.416,0,10.408l10.32,10.32l-10.32,10.32
		c-3.352,2.872-3.744,7.928-0.872,11.28s7.928,3.744,11.28,0.872c0.312-0.272,0.608-0.56,0.872-0.872l10.32-10.32l10.32,10.32
		c3.352,2.872,8.408,2.48,11.28-0.872c2.568-2.992,2.568-7.416,0-10.408L331.28,352.001z"/>
	<path style="fill:#3689C9;" d="M211.28,200.001l10.32-10.32c2.872-3.352,2.48-8.408-0.872-11.28c-2.992-2.568-7.416-2.568-10.408,0
		L200,188.721l-10.32-10.32c-3.352-2.872-8.408-2.48-11.28,0.872c-2.568,2.992-2.568,7.416,0,10.408l10.32,10.32l-10.32,10.32
		c-3.352,2.872-3.744,7.928-0.872,11.28c2.872,3.352,7.928,3.744,11.28,0.872c0.312-0.264,0.608-0.56,0.872-0.872l10.32-10.32
		l10.32,10.32c3.352,2.872,8.408,2.48,11.28-0.872c2.568-2.992,2.568-7.416,0-10.408L211.28,200.001z"/>
</g>
<path style="fill:#6F707E;" d="M341.68,242.321l-16-16c-3.12-3.104-8.16-3.104-11.28,0l-16,16c-2.872,3.352-2.48,8.408,0.872,11.28
	c2.992,2.568,7.416,2.568,10.408,0l2.32-2.32v14.16c0.016,8.448-6.528,15.448-14.96,16l-82.96,5.2c-16.888,1.056-30.032,15.08-30,32
	v17.36c0,4.416,3.584,8,8,8s8-3.584,8-8v-17.44c-0.016-8.472,6.584-15.488,15.04-16l83.04-5.2c16.888-1.056,30.032-15.08,30-32
	v-14.08l2.32,2.32c3.472,2.736,8.496,2.144,11.232-1.328C344.016,249.353,344.008,245.225,341.68,242.321z"/>
<g>
	<circle style="fill:#CECECE;" cx="200" cy="240.001" r="8"/>
	<circle style="fill:#CECECE;" cx="200" cy="264.001" r="8"/>
	<circle style="fill:#CECECE;" cx="320" cy="312.001" r="8"/>
</g>
<g>
	<path style="fill:#0E9347;" d="M336.96,200.961c7.288-7.304,9.096-18.448,4.48-27.68c-1.616-2.896-5.272-3.928-8.16-2.312
		c-0.496,0.28-0.96,0.624-1.36,1.032l-24,24c-2.368,2.32-2.4,6.12-0.08,8.488c0.4,0.408,0.856,0.76,1.36,1.032
		C318.464,210.153,329.664,208.313,336.96,200.961z"/>
	<path style="fill:#0E9347;" d="M208.96,400.961c7.288-7.304,9.096-18.448,4.48-27.68c-1.616-2.896-5.272-3.928-8.16-2.312
		c-0.496,0.28-0.96,0.624-1.36,1.032l-24,24c-2.368,2.32-2.4,6.12-0.08,8.488c0.4,0.408,0.856,0.76,1.36,1.032
		C190.464,410.153,201.664,408.313,208.96,400.961z"/>
</g>
<path style="fill:#1B6FAB;" d="M330.32,373.681c3.12,3.104,8.16,3.104,11.28,0l-16-16c-3.12-3.104-8.16-3.104-11.28,0l-16,16
	c3.12,3.104,8.16,3.104,11.28,0l10.4-10.4L330.32,373.681z"/>
<path style="fill:#4C9FD7;" d="M309.68,330.321c-3.12-3.104-8.16-3.104-11.28,0l16,16c3.12,3.104,8.16,3.104,11.28,0l16-16
	c-3.12-3.104-8.16-3.104-11.28,0l-10.4,10.4L309.68,330.321z"/>
<path style="fill:#1B6FAB;" d="M210.32,221.681c3.12,3.104,8.16,3.104,11.28,0l-16-16c-3.12-3.104-8.16-3.104-11.28,0l-16,16
	c3.12,3.104,8.16,3.104,11.28,0l10.4-10.4L210.32,221.681z"/>
<path style="fill:#4C9FD7;" d="M189.68,178.321c-3.12-3.104-8.16-3.104-11.28,0l16,16c3.12,3.104,8.16,3.104,11.28,0l16-16
	c-3.12-3.104-8.16-3.104-11.28,0l-10.4,10.4L189.68,178.321z"/>
<g>
</g>
<g>
</g>
<g>
</g>
<g>
</g>
<g>
</g>
<g>
</g>
<g>
</g>
<g>
</g>
<g>
</g>
<g>
</g>
<g>
</g>
<g>
</g>
<g>
</g>
<g>
</g>
<g>
</g>
</svg>
